<svg width="179" height="179" viewBox="0 0 179 179" fill="none" xmlns="http://www.w3.org/2000/svg">
<path d="M79.6245 100.158C90.7777 105.498 101.147 107.657 113.5 107.5C115.323 107.523 115.323 107.523 117.184 107.547C128.365 107.499 138.124 104.688 148.125 99.8125C154.982 96.5012 160.676 94.5297 168.125 97.0625C172.643 100.108 176.26 103.781 178 109C178.564 114.693 178.307 119.149 175 124C170.118 128.669 165.988 131.369 159.12 131.297C154.648 130.671 150.626 128.508 146.563 126.625C135.089 121.384 126.086 119.584 113.438 119.562C112.433 119.56 112.433 119.56 111.409 119.558C101.091 119.576 92.3972 120.383 83 125C82.0216 125.465 81.0432 125.931 80.0352 126.41C78.3574 127.236 76.6922 128.089 75.0508 128.984C70.7521 131.113 66.7701 131.397 62 131C56.7796 129.205 52.9058 126.806 50 122C47.418 116.014 47.9006 111.029 50 105C56.9628 92.5348 68.8348 94.9329 79.6245 100.158Z" fill="#EB7724"/>
<path d="M29.625 51.25C31.0488 51.8977 32.4746 52.5409 33.9023 53.1797C34.9501 53.649 34.9501 53.649 36.019 54.1279C52.145 61.227 72.7122 62.5162 89.5 56.75C90.1402 56.5318 90.7804 56.3136 91.4399 56.0888C95.2576 54.7475 98.8122 53.159 102.375 51.25C106.865 48.8968 110.895 47.6672 116 48C122.169 49.9535 126.627 52.5379 129.812 58.25C131.513 63.6213 131.794 67.6658 129.938 73.125C126.892 77.6434 123.219 81.2602 118 83C109.156 84.1991 102.637 80.463 94.8252 76.8247C79.2244 69.7755 57.0057 69.0222 41 75C37.1352 76.681 33.2923 78.4107 29.5278 80.3066C23.1747 83.3795 17.5095 84.2148 10.75 81.875C5.59868 78.3627 2.20834 74.1625 1 68C0.91307 61.9689 1.97854 57.6736 6 53C14.1621 46.8367 20.5611 46.848 29.625 51.25Z" fill="#EB7724"/>
<path d="M25.8359 144.941C27.8258 145.792 29.806 146.666 31.7774 147.559C35.2444 149.109 38.7434 150.452 42.3125 151.75C43.4224 152.157 44.5323 152.565 45.6758 152.984C52.7935 155.159 59.8716 155.212 67.25 155.25C68.7099 155.281 68.7099 155.281 70.1992 155.312C80.4766 155.367 89.2961 152.634 98.5625 148.375C99.2592 148.063 99.956 147.751 100.674 147.43C103.135 146.324 105.586 145.207 108 144C115.139 143.278 120.262 143.55 126 148C130.208 153.426 131.845 158.139 131 165C129.636 169.728 127.424 173.094 123.438 176C117.654 179.041 111.434 179.032 105.221 177.165C102.472 176.052 99.7999 174.844 97.125 173.562C95.317 172.726 93.5072 171.894 91.6953 171.066C90.9117 170.695 90.1281 170.323 89.3208 169.94C82.767 167.286 75.7324 167.709 68.7749 167.65C67.3594 167.633 65.9439 167.606 64.5288 167.568C51.4196 167.214 41.0563 169.86 29.25 175.812C23.794 178.366 18.9527 179.126 13 178C8.87144 176.328 5.95763 174.112 3.06251 170.75C0.70588 164.65 0.223349 158.944 2.83985 152.859C8.12345 144.391 16.5173 141.848 25.8359 144.941Z" fill="#EB7724"/>
<path d="M73.7236 1.81546C76.4044 2.92025 79.0149 4.11258 81.625 5.37504C92.2967 10.397 100.989 12.3769 112.812 12.3125C114.409 12.3052 114.409 12.3052 116.038 12.2976C129.037 12.1033 140.804 8.85058 152.062 2.18754C157.179 0.118988 162.851 -0.0245863 168.125 1.69144C173.382 4.39926 176.169 8.50719 178 14C179.046 20.5909 177.557 24.6394 173.801 30.0547C170.329 33.8046 166.903 35.4745 161.812 35.6875C154.168 35.5453 147.937 32.2311 141.199 28.9453C132.653 24.8516 124.346 24.4034 115 24C114.085 23.9575 113.17 23.915 112.227 23.8711C98.3476 23.5343 86.812 27.9286 74.3984 33.6641C69.4948 35.5917 65.1909 35.7057 60 35C55.0043 32.5476 51.2864 29.2509 49.207 23.9961C47.7502 18.9194 47.889 15.0093 49.8047 10.0821C54.9799 1.06765 64.1335 -1.05572 73.7236 1.81546Z" fill="#EB7724"/>
<path d="M171.313 51.5625C175.216 55.1026 177.474 58.8443 178.348 64.0859C178.555 68.7939 177.589 72.1163 175 76C170.802 80.1421 167.657 82.1592 161.75 82.3125C156.661 82.2593 153.876 81.498 150 78C145.77 73.3129 144.582 69.6144 144.652 63.418C145.413 58.1296 148.38 54.225 152.563 51.0625C159.01 48.2523 164.956 48.5641 171.313 51.5625Z" fill="#EB7724"/>
<path d="M28.9375 4.81249C32.8304 8.94128 34.2033 11.6687 34.4375 17.375C34.2698 22.7925 33.3222 25.7161 30 30C26.0628 33.4793 22.4612 34.7991 17.3086 35.1641C12.0514 34.7904 8.27332 32.2733 4.62501 28.625C1.56166 23.6765 0.517115 19.6613 1.46485 13.9531C2.73936 9.30162 5.2558 6.57365 9.00001 3.68749C15.6921 -0.0767956 22.4316 0.798236 28.9375 4.81249Z" fill="#EB7724"/>
<path d="M25.25 98.1875C29.3093 100.863 32.4385 103.315 34 108C34.5342 113.969 34.5331 118.936 31 124C27.1062 127.915 23.8994 129.839 18.3125 130.313C13.5291 130.233 9.88103 128.762 6 126C1.93211 121.515 0.740584 116.946 1 111C2.7418 105.194 5.60641 101.009 10.8867 97.8828C15.6047 95.9119 20.5458 96.4687 25.25 98.1875Z" fill="#EB7724"/>
<path d="M167 145C171.451 147.185 174.189 149.939 177 154C178.645 158.934 178.59 163.264 176.938 168.125C174.102 172.333 170.948 176.009 166.012 177.668C161.281 178.449 157.383 177.819 153 176C148.753 172.525 145.53 168.625 144.715 163.051C144.508 158.32 145.326 155.012 148 151C154.001 145.079 158.736 144.158 167 145Z" fill="#EB7724"/>
<path d="M14.375 2.25001C14.9112 2.49751 15.4475 2.74501 16 3.00001C15.01 3.66001 14.02 4.32001 13 5.00001C13.33 5.66001 13.66 6.32001 14 7.00001C13.0925 7.39188 12.185 7.78376 11.25 8.18751C6.1668 11.0224 3.86416 14.5629 2 20C1.67 20 1.34 20 1 20C1.40282 14.1592 2.11278 10.6226 6 6.00001C11.0466 1.89965 11.0466 1.89965 14.375 2.25001Z" fill="#EB7724"/>
<path d="M136 107C129.375 111 129.375 111 126 111C126 110.67 126 110.34 126 110C114.615 109.505 114.615 109.505 103 109C103 108.67 103 108.34 103 108C103.736 107.975 104.473 107.95 105.231 107.924C108.571 107.808 111.911 107.685 115.25 107.563C116.409 107.523 117.568 107.484 118.762 107.443C120.434 107.381 120.434 107.381 122.141 107.316C123.68 107.261 123.68 107.261 125.251 107.205C134.492 106.515 134.492 106.515 136 107Z" fill="#EB7724"/>
<path d="M59 98C59 99.32 59 100.64 59 102C57.68 102.33 56.36 102.66 55 103C55 103.99 55 104.98 55 106C52 108 52 108 50 108C49.67 108.99 49.34 109.98 49 111C49.4029 105.359 51.2191 102.965 55 99C57 98 57 98 59 98Z" fill="#EB7724"/>
<path d="M28 5C33.955 10.8023 33.955 10.8023 34.0977 14.6016C34.0861 15.5993 34.0745 16.597 34.0625 17.625C34.0535 18.6279 34.0445 19.6308 34.0352 20.6641C34.0236 21.4349 34.012 22.2058 34 23C33.67 23 33.34 23 33 23C32.902 22.157 32.8041 21.3139 32.7031 20.4453C32.4788 18.8018 32.4788 18.8018 32.25 17.125C32.1108 16.0345 31.9716 14.9439 31.8281 13.8203C31.2906 10.8722 31.2906 10.8722 28.9219 9.61719C27.9705 9.31168 27.9705 9.31168 27 9C27.33 7.68 27.66 6.36 28 5Z" fill="#EB7724"/>
<path d="M53 125C54.4812 125.281 55.9599 125.575 57.4375 125.875C58.6731 126.119 58.6731 126.119 59.9336 126.367C60.6155 126.576 61.2974 126.785 62 127C62.33 127.66 62.66 128.32 63 129C66.0293 129.658 66.0293 129.658 69 130C69 130.33 69 130.66 69 131C63.0964 131.492 58.9591 130.314 54 127C53.67 126.34 53.34 125.68 53 125Z" fill="#EB7724"/>
<path d="M154 146C154.66 146.33 155.32 146.66 156 147C156 147.66 156 148.32 156 149C155.381 149.083 154.762 149.165 154.125 149.25C151.816 149.813 151.816 149.813 150.75 152.062C150.502 152.702 150.255 153.341 150 154C149.01 154 148.02 154 147 154C148.491 150.205 150.757 148.39 154 146Z" fill="#EB7724"/>
<path d="M132 117C133.65 117 135.3 117 137 117C137 117.99 137 118.98 137 120C137.33 120.66 137.66 121.32 138 122C134.7 121.34 131.4 120.68 128 120C129.32 119.67 130.64 119.34 132 119C132 118.34 132 117.68 132 117Z" fill="#EB7724"/>
<path d="M174 103C176.248 105.052 177.002 106.007 178 109C178.067 110.561 178.085 112.125 178.062 113.688C178.053 114.496 178.044 115.304 178.035 116.137C178.024 116.752 178.012 117.366 178 118C177.67 118 177.34 118 177 118C176.67 114.37 176.34 110.74 176 107C175.01 106.67 174.02 106.34 173 106C173.33 105.01 173.66 104.02 174 103Z" fill="#EB7724"/>
<path d="M10 50C10.66 50.33 11.32 50.66 12 51C11.0704 52.1522 10.131 53.2966 9.1875 54.4375C8.40439 55.3946 8.40439 55.3946 7.60547 56.3711C6 58 6 58 3 59C4.35022 54.5811 6.26116 52.6565 10 50Z" fill="#EB7724"/>
<path d="M169 147C171.884 148.293 173.872 149.659 176 152C175.67 152.66 175.34 153.32 175 154C170.2 151.538 170.2 151.538 169.188 148.812C169.126 148.214 169.064 147.616 169 147Z" fill="#EB7724"/>
<path d="M71 97C76.75 98.75 76.75 98.75 79 101C77.02 101.99 77.02 101.99 75 103C72 101 72 101 71.3125 98.875C71.2094 98.2563 71.1063 97.6375 71 97Z" fill="#EB7724"/>
<path d="M175 73C175 73.99 175 74.98 175 76C172.5 78.1875 172.5 78.1875 170 80C170.25 77.625 170.25 77.625 171 75C173.062 73.6875 173.062 73.6875 175 73Z" fill="#EB7724"/>
<path d="M13 126C13.99 126.33 14.98 126.66 16 127C16 127.33 16 127.66 16 128C18.97 128.495 18.97 128.495 22 129C22 129.33 22 129.66 22 130C20.7419 130.041 19.4837 130.082 18.1875 130.125C17.4798 130.148 16.7721 130.171 16.043 130.195C14 130 14 130 11 128C11.66 128 12.32 128 13 128C13 127.34 13 126.68 13 126Z" fill="#EB7724"/>
<path d="M16 3.00002C13.6403 5.09752 12.4538 5.96908 9.25 6.18752C8.13625 6.09471 8.13625 6.09471 7 6.00002C10.1642 2.69203 11.4976 1.64931 16 3.00002Z" fill="#EB7724"/>
</svg>
